<?xml version="1.0" encoding="utf-8"?>
<!-- Generator: Adobe Illustrator 22.1.0, SVG Export Plug-In . SVG Version: 6.00 Build 0)  -->
<svg version="1.1" id="Layer_1" xmlns="http://www.w3.org/2000/svg" xmlns:xlink="http://www.w3.org/1999/xlink" x="0px" y="0px"
	 viewBox="0 0 512 512" style="enable-background:new 0 0 512 512;" xml:space="preserve">
<style type="text/css">
	.st0{fill:#ECEDEF;}
	.st1{fill:#3C3F4D;}
	.st2{fill:#FFC44F;}
	.st3{fill:#C4DF64;}
	.st4{fill:#FF8C78;}
	.st5{fill:#B3B9BF;}
	.st6{fill:#8E959F;}
	.st7{fill:#D9DCDF;}
	.st8{fill:#68727E;}
	.st9{fill:#FF491F;}
	.st10{fill:#D21715;}
	.st11{fill:#55606E;}
</style>
<path class="st0" d="M1,76.4v410.5C1,500.7,12.3,512,26.1,512h461.8c13.9,0,25.1-11.3,25.1-25.1V76.4H1z"/>
<path class="st1" d="M486.9,0H25.1C11.2,0,0,11.2,0,25.1v76.4h512V25.1C512,11.2,500.8,0,486.9,0z"/>
<path class="st2" d="M45.9,25.7C32,25.7,20.8,37,20.8,50.8S32,75.9,45.9,75.9S71,64.6,71,50.8S59.7,25.7,45.9,25.7z"/>
<path class="st3" d="M114.3,25.7c-13.9,0-25.1,11.3-25.1,25.1s11.3,25.1,25.1,25.1s25.1-11.3,25.1-25.1S128.1,25.7,114.3,25.7z"/>
<path class="st4" d="M182.7,25.7c-13.9,0-25.1,11.3-25.1,25.1s11.3,25.1,25.1,25.1s25.1-11.3,25.1-25.1S196.5,25.7,182.7,25.7z"/>
<g>
	<path class="st5" d="M385.3,350.6h-248c-4.4,0-8,3.6-8,8v34.2c0,4.4,3.6,8,8,8h248c4.4,0,8-3.6,8-8v-34.2
		C393.3,354.2,389.7,350.6,385.3,350.6z"/>
	<path class="st5" d="M385.3,419h-248c-4.4,0-8,3.6-8,8v34.2c0,4.4,3.6,8,8,8h248c4.4,0,8-3.6,8-8V427
		C393.3,422.6,389.7,419,385.3,419z"/>
</g>
<g>
	<path class="st6" d="M138.4,384.8v-34.2h-1.1c-4.4,0-8,3.6-8,8v34.2c0,4.4,3.6,8,8,8h248c4.4,0,8-3.6,8-8H146.4
		C141.9,392.8,138.4,389.2,138.4,384.8z"/>
	<path class="st6" d="M138.4,453.2V419h-1.1c-4.4,0-8,3.6-8,8v34.2c0,4.4,3.6,8,8,8h248c4.4,0,8-3.6,8-8H146.4
		C141.9,461.2,138.4,457.6,138.4,453.2z"/>
</g>
<g>
	<path class="st7" d="M461.2,58.8h-17.1c-4.4,0-8-3.6-8-8s3.6-8,8-8h17.1c4.4,0,8,3.6,8,8S465.7,58.8,461.2,58.8z"/>
	<path class="st7" d="M418.5,58.8H290.2c-4.4,0-8-3.6-8-8s3.6-8,8-8h128.3c4.4,0,8,3.6,8,8S422.9,58.8,418.5,58.8z"/>
</g>
<path class="st6" d="M307.8,170.5c0-23.3-18.9-42.2-42.2-42.2h-17.1c-23.3,0-42.2,18.9-42.2,42.2v8.6c0,4.4,3.6,8,8,8s8-3.6,8-8
	v-8.6c0-14.4,11.7-26.2,26.2-26.2h17.1c14.4,0,26.2,11.7,26.2,26.2v33.9h16V170.5L307.8,170.5z"/>
<rect x="291.7" y="183.7" class="st8" width="16" height="20.8"/>
<path class="st9" d="M312.6,196.7H210c-13.9,0-25.1,11.3-25.1,25.1v102.6c0,4.4,3.6,8,8,8h136.8c4.4,0,8-3.6,8-8V221.8
	C337.7,207.9,326.5,196.7,312.6,196.7z"/>
<path class="st10" d="M197.1,324.4V221.8c0-13.9,11.3-25.1,25.1-25.1h-16.6c-13.9,0-25.1,11.3-25.1,25.1v102.6c0,4.4,3.6,8,8,8h16.6
	C200.7,332.4,197.1,328.8,197.1,324.4z"/>
<path class="st8" d="M289.1,256c0-13.9-11.3-25.1-25.1-25.1c-13.9,0-25.1,11.3-25.1,25.1c0,11,7.2,20.4,17.1,23.8v19
	c0,4.4,3.6,8,8,8s8-3.6,8-8v-19C281.9,276.4,289.1,267,289.1,256z"/>
<path class="st11" d="M264,298.8v-19c-9.9-3.4-17.1-12.8-17.1-23.8c0-12.5,9.2-22.9,21.1-24.8c-1.3-0.2-2.6-0.3-4-0.3
	c-13.9,0-25.1,11.3-25.1,25.1c0,11,7.2,20.4,17.1,23.8v19c0,4.4,3.6,8,8,8c1.5,0,2.8-0.4,4-1.1C265.6,304.3,264,301.7,264,298.8z"/>
</svg>
