<svg height="512pt" viewBox="0 0 512 511" width="512pt" xmlns="http://www.w3.org/2000/svg"><path d="m111.167969 259.03125c0 99.921875 57.847656 154.023438 144.832031 203.441406 86.984375-49.417968 144.832031-103.519531 144.832031-203.441406s-57.847656-199.117188-144.832031-248.53125c-86.984375 49.414062-144.832031 148.609375-144.832031 248.53125zm0 0" fill="#cbe558"/><path d="m260.941406 1.804688c-3.066406-1.7382818-6.816406-1.7382818-9.878906 0-44.21875 25.121093-81.820312 62.808593-108.734375 108.984374-26.929687 46.195313-41.160156 97.457032-41.160156 148.242188 0 49.492188 13.71875 90.984375 41.941406 126.84375 22.796875 28.96875 54.667969 54.515625 102.890625 82.390625v34.203125c0 5.523438 4.476562 10 10 10s10-4.476562 10-10v-34.203125c48.226562-27.875 80.097656-53.421875 102.894531-82.390625 28.222657-35.859375 41.9375-77.347656 41.9375-126.84375 0-50.785156-14.230469-102.046875-41.15625-148.242188-26.917969-46.175781-64.515625-83.863281-108.734375-108.984374zm5.058594 443.253906v-83.328125l81.851562-81.851563c3.902344-3.902344 3.902344-10.234375 0-14.140625-3.90625-3.902343-10.238281-3.902343-14.144531 0l-67.707031 67.710938v-87.269531l69.789062-69.785157c3.902344-3.90625 3.902344-10.234375 0-14.140625-3.90625-3.902344-10.238281-3.90625-14.144531 0l-55.644531 55.644532v-83.699219c0-5.519531-4.476562-10-10-10s-10 4.480469-10 10v83.699219l-55.644531-55.644532c-3.90625-3.90625-10.238281-3.90625-14.144531 0-3.902344 3.902344-3.902344 10.234375 0 14.140625l69.789062 69.785157v87.269531l-67.707031-67.710938c-3.90625-3.902343-10.238281-3.902343-14.144531 0-3.902344 3.90625-3.902344 10.238281 0 14.140625l81.851562 81.851563v83.328125c-75.519531-45.335938-124.835938-96.109375-124.835938-186.027344 0-94.054688 53.96875-188.519531 134.835938-236.957031 80.867188 48.4375 134.835938 142.902343 134.835938 236.957031 0 89.917969-49.316407 140.691406-124.835938 186.027344zm0 0"/><path d="m502 231.648438h-39.574219c-5.523437 0-10 4.476562-10 10 0 5.519531 4.476563 10 10 10h39.574219c5.523438 0 10-4.480469 10-10 0-5.523438-4.476562-10-10-10zm0 0"/><path d="m443.410156 184.691406c2.558594 0 5.117188-.976562 7.070313-2.929687l45.492187-45.488281c3.902344-3.90625 3.902344-10.238282 0-14.144532-3.90625-3.902344-10.238281-3.902344-14.144531 0l-45.488281 45.492188c-3.90625 3.902344-3.90625 10.234375 0 14.140625 1.953125 1.953125 4.511718 2.929687 7.070312 2.929687zm0 0"/><path d="m450.480469 301.667969c-3.90625-3.902344-10.234375-3.902344-14.140625 0-3.90625 3.90625-3.90625 10.238281 0 14.144531l46.136718 46.136719c1.953126 1.953125 4.511719 2.929687 7.070313 2.929687s5.121094-.976562 7.070313-2.929687c3.90625-3.902344 3.90625-10.234375 0-14.140625zm0 0"/><path d="m59.578125 241.648438c0-5.523438-4.476563-10-10-10h-39.578125c-5.523438 0-10 4.476562-10 10 0 5.519531 4.476562 10 10 10h39.578125c5.523437 0 10-4.480469 10-10zm0 0"/><path d="m30.167969 122.132812c-3.902344-3.90625-10.234375-3.90625-14.140625 0-3.902344 3.902344-3.902344 10.234376 0 14.140626l45.492187 45.488281c1.953125 1.953125 4.511719 2.929687 7.070313 2.929687s5.117187-.976562 7.070312-2.929687c3.90625-3.902344 3.90625-10.234375 0-14.140625zm0 0"/><path d="m61.519531 301.667969-46.136719 46.140625c-3.90625 3.902344-3.90625 10.234375 0 14.140625 1.949219 1.953125 4.511719 2.929687 7.070313 2.929687s5.117187-.976562 7.070313-2.929687l46.136718-46.136719c3.90625-3.90625 3.90625-10.238281 0-14.144531-3.90625-3.902344-10.234375-3.902344-14.140625 0zm0 0"/><path d="m256 79.203125c-2.628906 0-5.210938 1.070313-7.070312 2.929687-1.859376 1.859376-2.929688 4.441407-2.929688 7.070313s1.070312 5.210937 2.929688 7.070313c1.859374 1.859374 4.441406 2.929687 7.070312 2.929687s5.210938-1.070313 7.070312-2.929687c1.859376-1.859376 2.929688-4.441407 2.929688-7.070313s-1.070312-5.210937-2.929688-7.070313c-1.859374-1.859374-4.441406-2.929687-7.070312-2.929687zm0 0"/></svg>