<?xml version="1.0" encoding="utf-8"?>
<!-- Generator: Adobe Illustrator 22.1.0, SVG Export Plug-In . SVG Version: 6.00 Build 0)  -->
<svg version="1.1" id="Layer_1" xmlns="http://www.w3.org/2000/svg" xmlns:xlink="http://www.w3.org/1999/xlink" x="0px" y="0px"
	 viewBox="0 0 511 511" style="enable-background:new 0 0 511 511;" xml:space="preserve">
<style type="text/css">
	.st0{fill:#FF491F;}
	.st1{fill:#2D303B;}
	.st2{fill:#3C3F4D;}
	.st3{fill:#C4E2F2;}
	.st4{fill:#E6E6E6;}
</style>
<path class="st0" d="M61.1,116V27.9C61.1,11.9,74-1,90-1h246.4c17.3,0,31.3,14,31.3,31.3V180"/>
<path class="st1" d="M91.5,39.9H61.1v38h306.6v-38H117.6"/>
<path class="st2" d="M508.8,153v241.2c0,20.4-16.6,37-37,37H41c-20.4,0-37-16.6-37-37V153c0-20.4,16.6-37,37-37h430.9
	C492.3,116,508.8,132.6,508.8,153z"/>
<path class="st1" d="M57.9,273.6c0,11.8-9.6,21.4-21.4,21.4c-11.8,0-21.4-9.6-21.4-21.4c0-11.8,9.6-21.4,21.4-21.4
	C48.3,252.2,57.9,261.8,57.9,273.6z"/>
<path class="st1" d="M398.3,204.1v227.1H157.8V204.1c0-15.8-6.4-30.1-16.8-40.5c-10.4-10.4-24.7-16.8-40.5-16.8H341
	C372.7,146.8,398.3,172.5,398.3,204.1z"/>
<path class="st3" d="M444.1,381.8V165.5c0-10.3-8.4-18.7-18.7-18.7H87.7c-10.3,0-18.7,8.4-18.7,18.7v216.3
	c0,10.3,8.4,18.7,18.7,18.7h337.8C435.8,400.4,444.1,392.1,444.1,381.8z"/>
<path class="st1" d="M477.9,309c-4.3,0-7.8-3.5-7.8-7.8V246c0-4.3,3.5-7.8,7.8-7.8c4.3,0,7.8,3.5,7.8,7.8v55.2
	C485.7,305.5,482.2,309,477.9,309z"/>
<path class="st4" d="M403.9,204.1V510l-40.1-22.9L323.7,510l-40.1-22.9L243.6,510l-40.1-22.9L163.4,510V204.1
	c0-15.8-6.4-30.1-16.8-40.5c-10.4-10.4-24.7-16.8-40.5-16.8h240.5C378.2,146.8,403.9,172.5,403.9,204.1z"/>
<g>
	<path class="st2" d="M232.2,276.8h-33.3c-4.3,0-7.8-3.5-7.8-7.8c0-4.3,3.5-7.8,7.8-7.8h33.3c4.3,0,7.8,3.5,7.8,7.8
		C240,273.3,236.5,276.8,232.2,276.8z"/>
	<path class="st2" d="M374.9,276.8H266.6c-4.3,0-7.8-3.5-7.8-7.8c0-4.3,3.5-7.8,7.8-7.8h108.3c4.3,0,7.8,3.5,7.8,7.8
		C382.7,273.3,379.2,276.8,374.9,276.8z"/>
	<path class="st2" d="M232.2,237.8h-33.3c-4.3,0-7.8-3.5-7.8-7.8s3.5-7.8,7.8-7.8h33.3c4.3,0,7.8,3.5,7.8,7.8
		S236.5,237.8,232.2,237.8z"/>
	<path class="st2" d="M374.9,237.8H266.6c-4.3,0-7.8-3.5-7.8-7.8s3.5-7.8,7.8-7.8h108.3c4.3,0,7.8,3.5,7.8,7.8
		S379.2,237.8,374.9,237.8z"/>
	<path class="st2" d="M221.8,198.8h-33.3c-4.3,0-7.8-3.5-7.8-7.8s3.5-7.8,7.8-7.8h33.3c4.3,0,7.8,3.5,7.8,7.8
		S226.1,198.8,221.8,198.8z"/>
	<path class="st2" d="M364.4,198.8H256.2c-4.3,0-7.8-3.5-7.8-7.8s3.5-7.8,7.8-7.8h108.3c4.3,0,7.8,3.5,7.8,7.8
		S368.8,198.8,364.4,198.8z"/>
	<path class="st2" d="M232.2,316h-33.3c-4.3,0-7.8-3.5-7.8-7.8c0-4.3,3.5-7.8,7.8-7.8h33.3c4.3,0,7.8,3.5,7.8,7.8
		C240,312.5,236.5,316,232.2,316z"/>
	<path class="st2" d="M374.9,316H266.6c-4.3,0-7.8-3.5-7.8-7.8c0-4.3,3.5-7.8,7.8-7.8h108.3c4.3,0,7.8,3.5,7.8,7.8
		C382.7,312.5,379.2,316,374.9,316z"/>
	<path class="st2" d="M232.2,355.1h-33.3c-4.3,0-7.8-3.5-7.8-7.8c0-4.3,3.5-7.8,7.8-7.8h33.3c4.3,0,7.8,3.5,7.8,7.8
		C240,351.6,236.5,355.1,232.2,355.1z"/>
	<path class="st2" d="M374.9,355.1H266.6c-4.3,0-7.8-3.5-7.8-7.8c0-4.3,3.5-7.8,7.8-7.8h108.3c4.3,0,7.8,3.5,7.8,7.8
		C382.7,351.6,379.2,355.1,374.9,355.1z"/>
	<path class="st2" d="M311.3,435c0-4.9-1.3-9.7-4.4-13.6c-2.7-3.3-6.4-5.6-10.2-7.4c-1-0.4-1.9-0.9-2.9-1.3
		c-0.4-0.2-1.4-0.4-1.6-0.7c-0.3-0.5,0-1.8,0-2.4c0-3.3,0-6.6,0-9.9c0-2.4,0-4.9,0-7.3c3.1,0.4,5.7,1.7,8.5,3c2.1,1,4.4,1.2,6.2-0.5
		c1.6-1.6,2.6-4.2,2.5-6.4c-0.1-2.5-2-4.2-4.1-5.3c-2.5-1.4-5.4-2.1-8.2-2.5c-1.5-0.2-3.1-0.2-4.5-0.5c-0.4-0.1-0.3,0-0.4-0.2
		c-0.1-0.1,0-0.6,0-0.7c0-0.6,0-1.1-0.1-1.6c-0.7-3.1-4.1-4.8-7-3.5c-1.4,0.6-2.4,1.8-2.9,3.3c-0.2,0.5-0.2,1.1-0.2,1.6
		c0,0.3,0.2,1.1,0,1.4c-0.2,0.3-1.1,0.3-1.5,0.4c-0.7,0.1-1.4,0.3-2.1,0.5c-1.4,0.4-2.7,0.8-4,1.4c-2.5,1.1-4.8,2.5-6.7,4.4
		c-4.4,4.3-6.2,10.5-5.7,16.6c0.5,5.8,3.4,10.7,8.2,14c2.2,1.6,4.7,2.8,7.2,3.9c1.3,0.5,2.6,1.1,3.9,1.6c0.7,0.3,0.6,0.1,0.7,0.7
		c0.2,1.3,0,2.7,0,4v6.3v10.7v0.6c-3.8-0.7-7.1-2.5-10.1-4.9c-1.8-1.4-4.1-3.6-6.7-3.1c-3.2,0.7-5.6,5-5.3,8.1
		c0.3,2.9,2.4,5.3,4.6,7c3.2,2.5,7,4.1,10.9,5.1c1.1,0.3,2.2,0.5,3.4,0.6c0.6,0.1,3,0.1,3.2,0.4c0.1,0.2,0,0.6,0,0.8
		c0,0.5,0.1,1,0.3,1.5c0.4,1,1.1,1.9,1.9,2.5c3.3,2.5,7.9-0.4,8-4.2c0-0.3,0-0.6,0-0.8c0.1-0.5-0.1-0.3,0.3-0.5
		c0.8-0.4,2-0.5,2.9-0.8c1.7-0.5,3.3-1.2,4.8-2C307.6,451,311.3,443.3,311.3,435z M275.3,400.2c0-3.9,3.2-6.3,6.7-7.2v15.3
		C278.5,406.7,275.3,404.4,275.3,400.2z M292.2,444.7c0-5.7,0-11.4,0-17.2c3.4,1.9,5.7,4.7,5.8,8.7
		C298,440.1,295.8,443.2,292.2,444.7z"/>
	<path class="st2" d="M287.1,464.6c-2.4,0-4.5-1.6-5.1-3.9c-0.2-0.5-0.1-1-0.2-1.5c-0.1-0.6,0.1-0.5-0.7-0.5
		c-1.4-0.1-2.8-0.3-4.2-0.6c-4.5-0.9-9-2.6-12.6-5.5c-2.3-1.9-4.7-4.7-4.6-7.9c0.1-3.6,3.4-8.7,7.5-7.6c2.5,0.7,4.5,2.9,6.6,4.4
		c2.4,1.7,5,2.9,7.9,3.5c0-6.6,0-13.2,0-19.8c0-0.4,0.1-1,0-1.4c-0.1-0.5-0.2-0.4-0.9-0.7c-2.2-0.8-4.4-1.7-6.6-2.8
		c-4.5-2.2-8.7-5.4-10.8-10.1c-2.4-5.1-2.4-11.6-0.3-16.8c2-5.1,6.1-8.8,11.1-11c1.4-0.6,2.8-1.1,4.3-1.5c0.7-0.2,1.5-0.4,2.2-0.5
		c0.2,0,1-0.1,1.1-0.2c0.1-0.1,0-0.6,0-0.7c0-2.7,1.1-5.3,4-6c2.9-0.8,6,1.1,6.6,4.1c0.1,0.5,0.1,1,0.1,1.5c0,0.1-0.1,0.6,0,0.7
		c0.1,0.2,0.7,0.1,1,0.2c1.8,0.2,3.5,0.4,5.2,0.8c4.6,0.9,11.9,3.3,10.9,9.3c-0.4,2.3-1.5,4.8-3.7,6c-2.9,1.6-5.8-0.6-8.4-1.8
		c-1.6-0.7-3.3-1.2-5-1.5V405v6.3c0,0.1-0.1,0.4,0,0.5c0.2,0.3,1.3,0.6,1.7,0.7c1.6,0.7,3.2,1.4,4.7,2.2c6.5,3.5,11.4,8.8,12.5,16.3
		c1.1,7.3-0.8,15.3-6.2,20.6c-3,2.9-6.7,4.8-10.7,6c-0.5,0.1-1.3,0.2-1.7,0.4c-0.4,0.2-0.3,0.2-0.3,0.7c0,0.8-0.1,1.6-0.3,2.4
		C291.3,463.2,289.3,464.6,287.1,464.6z M266.1,437.5c-2.7,0-4.6,2.8-5.4,5c-0.7,2-0.5,3.9,0.5,5.7c2.5,4.5,7.8,7.1,12.4,8.5
		c1.7,0.5,3.4,0.9,5.1,1.1c0.8,0.1,1.6,0.2,2.5,0.3c0.2,0,0.9-0.1,1,0.1c0.2,0.2,0.1,0.1,0.1,0.4c0.2,1.4,0.2,2.5,1.1,3.6
		c0.9,1.1,2.2,1.8,3.7,1.8c2.7,0,4.8-2.2,4.9-4.8c0-0.4,0-0.7,0-1c0-0.6,0-0.5,0.6-0.6c1.4-0.3,2.8-0.7,4.1-1.2
		c4.8-1.8,9-5,11.5-9.5c2.7-4.8,3.4-10.7,2.5-16.1c-0.9-5.3-3.7-9.7-8-12.9c-2-1.5-4.3-2.7-6.6-3.8c-1.2-0.5-2.4-1-3.6-1.5
		c-0.6-0.2-0.6-0.1-0.7-0.6c-0.2-1.1,0-2.4,0-3.6c0-1.9,0-3.9,0-5.8c0-3.3,0-6.6,0-9.9c0-0.2,0-0.4,0-0.6c3.3,0.5,6.1,1.8,9.1,3.2
		c3,1.4,5.6,0.4,7.1-2.5c1-2,1.6-4.6,0.3-6.6c-1.5-2.4-4.7-3.6-7.3-4.3c-1.7-0.5-3.5-0.8-5.2-1.1c-0.9-0.1-1.8-0.2-2.7-0.3
		c-0.2,0-1,0-1.1-0.1c-0.2-0.1-0.1-0.1-0.1-0.4c-0.1-1.2,0.1-2.3-0.6-3.5c-0.7-1.3-2-2.3-3.4-2.5c-3.1-0.5-5.6,1.9-5.7,4.9
		c0,0.4,0.1,0.9,0,1.4c-0.1,0.6-0.2,0.4-0.9,0.6c-1.8,0.3-3.5,0.7-5.2,1.3c-4.8,1.7-9.1,4.7-11.6,9.3c-1.8,3.3-2.5,7.1-2.4,10.8
		c0.2,6,2.8,11.1,7.7,14.7c2.3,1.7,5,3,7.6,4.2c1.4,0.6,2.8,1.2,4.2,1.7c0.6,0.2,0.5,0.1,0.6,0.6c0.2,1.3,0,2.7,0,4.1v6.5V445v0.6
		c-3.1-0.5-5.8-1.7-8.4-3.4c-1.1-0.8-2.2-1.6-3.3-2.5C269.3,438.7,267.8,437.5,266.1,437.5z M291.9,445c0-5.2,0-10.5,0-15.7
		c0-0.8,0-1.5,0-2.3c3.6,2,6.2,4.8,6.3,9C298.3,440.4,295.9,443.5,291.9,445z M292.4,427.9v16.3c3.3-1.4,5.3-4.4,5.3-8
		C297.7,432.5,295.6,429.8,292.4,427.9z M282.3,408.6c-3.7-1.6-7.2-3.9-7.2-8.4c0-4.2,3.5-6.6,7.2-7.6V408.6z M281.7,393.3
		c-3.3,1-6.2,3.2-6.2,6.9c0,3.9,3,6.1,6.2,7.6C281.7,403,281.7,398.1,281.7,393.3z"/>
</g>
</svg>
